<svg width="158" height="32" viewBox="0 0 158 32" fill="none" xmlns="http://www.w3.org/2000/svg">
<g clip-path="url(#clip0_170_114)">
<path d="M15.4852 32C6.59631 32 0 25.1429 0 16.4736V16.3844C0 7.80438 6.47276 0.775635 15.746 0.775635C21.4363 0.775635 24.8477 2.67696 27.6482 5.4363L23.42 10.3097C21.0931 8.19563 18.7181 6.90519 15.698 6.90519C10.6118 6.90519 6.93951 11.1334 6.93951 16.3089V16.3981C6.93951 21.5736 10.5225 25.8842 15.698 25.8842C19.1506 25.8842 21.2647 24.5045 23.6328 22.3492L27.861 26.6186C24.7585 29.9408 21.3059 32.0069 15.4852 32.0069V32Z" fill="#606060"/>
<path d="M47.2106 17.1737V20.8528C47.2106 23.5847 44.9936 25.8018 42.2617 25.8018H38.5895C38.1913 25.8018 37.8138 25.9596 37.5324 26.2411L34.3406 29.4328C33.4003 30.3732 34.0661 31.9862 35.3977 31.9862H48.4324C51.1643 31.9862 53.3814 29.7692 53.3814 27.0373V13.9957C53.3814 12.6641 51.7752 11.9983 50.828 12.9386L47.6362 16.1304C47.3548 16.4118 47.1969 16.7893 47.1969 17.1874L47.2106 17.1737ZM40.4908 14.133H44.1699C44.568 14.133 44.9455 13.9751 45.2269 13.6937L48.4187 10.5019C49.3591 9.56153 48.6933 7.94849 47.3617 7.94849H34.32C31.5882 7.94849 29.3711 10.1656 29.3711 12.8974V25.939C29.3711 27.2707 30.9773 27.9365 31.9245 26.9961L35.1163 23.8043C35.3977 23.5229 35.5556 23.1454 35.5556 22.7473V19.0682C35.5556 16.3363 37.7726 14.1192 40.5045 14.1192L40.4908 14.133Z" fill="#01B676"/>
<path d="M73.946 31.4852V28.163C72.3467 30.3183 70.1502 31.9176 66.7457 31.9176C61.3574 31.9176 56.2231 27.6894 56.2231 19.9674V19.8782C56.2231 12.1562 61.2682 7.92793 66.7457 7.92793C70.2394 7.92793 72.3947 9.52038 73.946 11.3805V0C77.5633 0 80.5011 2.9378 80.5011 6.55513V31.4852H73.946ZM74.0284 19.885C74.0284 16.048 71.4818 13.5015 68.4205 13.5015C65.3591 13.5015 62.7714 16 62.7714 19.885V19.9743C62.7714 23.8112 65.3591 26.3578 68.4205 26.3578C71.4818 26.3578 74.0284 23.8112 74.0284 19.9743V19.885Z" fill="#606060"/>
<path d="M107.161 22.212H91.0715C91.7167 25.191 93.7897 26.7422 96.7206 26.7422C98.9171 26.7422 100.516 26.049 102.329 24.3673L106.083 27.6895C103.928 30.3664 100.818 32.0001 96.6382 32.0001C89.6919 32.0001 84.5645 27.1266 84.5645 20.0498V19.9606C84.5645 13.3643 89.2663 7.92798 95.993 7.92798C103.715 7.92798 107.25 13.9203 107.25 20.4822V20.5715C107.25 21.2167 107.209 21.6079 107.161 22.212ZM95.9862 13.1995C93.268 13.1995 91.504 15.142 90.9823 18.1142H100.86C100.468 15.1832 98.7455 13.1995 95.9862 13.1995Z" fill="#606060"/>
<path d="M124.335 14.792C119.976 14.792 117.306 17.4209 117.306 22.9464V31.4853H110.751V8.36728H117.306V13.0279C118.644 9.83618 120.8 7.76325 124.678 7.94171V14.7989H124.335V14.792Z" fill="#606060"/>
<path d="M140.987 14.792C136.628 14.792 133.958 17.4209 133.958 22.9464V31.4853H127.403V8.36728H133.958V13.0279C135.296 9.83618 137.452 7.76325 141.33 7.94171V14.7989H140.987V14.792Z" fill="#606060"/>
<path d="M138.914 31.4852L152.759 0H157.934L144.082 31.4852H138.907H138.914Z" fill="#606060"/>
</g>
<defs>
<clipPath id="clip0_170_114">
<rect width="157.934" height="32" fill="white"/>
</clipPath>
</defs>
</svg>
