<svg width="139" height="28" viewBox="0 0 139 28" fill="none" xmlns="http://www.w3.org/2000/svg">
<g clip-path="url(#clip0_170_69)">
<path d="M13.5495 28C5.77177 28 0 22 0 14.4144V14.3364C0 6.82886 5.66366 0.678711 13.7778 0.678711C18.7568 0.678711 21.7417 2.34237 24.1922 4.75679L20.4925 9.02105C18.4565 7.1712 16.3784 6.04207 13.7357 6.04207C9.28529 6.04207 6.07207 9.74177 6.07207 14.2703V14.3484C6.07207 18.8769 9.20721 22.6487 13.7357 22.6487C16.7568 22.6487 18.6066 21.4415 20.6787 19.5556L24.3784 23.2913C21.6637 26.1982 18.6426 28.006 13.5495 28.006V28Z" fill="#BFBFBF"/>
<path d="M41.3093 15.027V18.2462C41.3093 20.6366 39.3694 22.5766 36.979 22.5766H33.7658C33.4174 22.5766 33.0871 22.7147 32.8408 22.961L30.0481 25.7538C29.2252 26.5766 29.8078 27.988 30.973 27.988H42.3784C44.7688 27.988 46.7087 26.048 46.7087 23.6577V12.2462C46.7087 11.0811 45.3033 10.4985 44.4745 11.3213L41.6817 14.1141C41.4354 14.3604 41.2973 14.6907 41.2973 15.039L41.3093 15.027ZM35.4294 12.3664H38.6487C38.997 12.3664 39.3273 12.2282 39.5736 11.982L42.3664 9.18919C43.1892 8.36637 42.6066 6.95496 41.4414 6.95496H30.03C27.6396 6.95496 25.6997 8.8949 25.6997 11.2853V22.6967C25.6997 23.8619 27.1051 24.4444 27.9339 23.6216L30.7267 20.8288C30.973 20.5826 31.1111 20.2523 31.1111 19.9039V16.6847C31.1111 14.2943 33.0511 12.3544 35.4414 12.3544L35.4294 12.3664Z" fill="#01B676"/>
<path d="M64.7027 27.5495V24.6426C63.3033 26.5285 61.3814 27.9279 58.4024 27.9279C53.6877 27.9279 49.1952 24.2282 49.1952 17.4715V17.3934C49.1952 10.6366 53.6096 6.93694 58.4024 6.93694C61.4594 6.93694 63.3453 8.33033 64.7027 9.95796V0C67.8679 0 70.4384 2.57057 70.4384 5.73574V27.5495H64.7027ZM64.7748 17.3994C64.7748 14.042 62.5465 11.8138 59.8679 11.8138C57.1892 11.8138 54.9249 14 54.9249 17.3994V17.4775C54.9249 20.8348 57.1892 23.0631 59.8679 23.0631C62.5465 23.0631 64.7748 20.8348 64.7748 17.4775V17.3994Z" fill="#BFBFBF"/>
<path d="M93.7658 19.4354H79.6877C80.2522 22.042 82.0661 23.3994 84.6306 23.3994C86.5526 23.3994 87.9519 22.7927 89.5375 21.3213L92.8228 24.2282C90.9369 26.5705 88.2162 28 84.5586 28C78.4805 28 73.994 23.7357 73.994 17.5435V17.4654C73.994 11.6936 78.1081 6.93689 83.994 6.93689C90.7507 6.93689 93.8438 12.1801 93.8438 17.9219V18C93.8438 18.5645 93.8078 18.9069 93.7658 19.4354ZM83.988 11.5495C81.6096 11.5495 80.0661 13.2492 79.6096 15.8498H88.2522C87.9099 13.2852 86.4024 11.5495 83.988 11.5495Z" fill="#BFBFBF"/>
<path d="M108.793 12.9429C104.979 12.9429 102.643 15.2432 102.643 20.0781V27.5495H96.9069V7.32129H102.643V11.3994C103.814 8.60658 105.7 6.79277 109.093 6.94892V12.9489H108.793V12.9429Z" fill="#BFBFBF"/>
<path d="M123.363 12.9429C119.55 12.9429 117.213 15.2432 117.213 20.0781V27.5495H111.477V7.32129H117.213V11.3994C118.384 8.60658 120.27 6.79277 123.664 6.94892V12.9489H123.363V12.9429Z" fill="#BFBFBF"/>
<path d="M121.55 27.5495L133.664 0H138.192L126.072 27.5495H121.544H121.55Z" fill="#BFBFBF"/>
</g>
<defs>
<clipPath id="clip0_170_69">
<rect width="138.192" height="28" fill="white"/>
</clipPath>
</defs>
</svg>
