<svg width="12" height="16" viewBox="0 0 12 16" fill="none" xmlns="http://www.w3.org/2000/svg">
<path d="M1.5 8.00002C1.5 8.16669 1.51042 8.33335 1.53125 8.50002C1.55208 8.66669 1.57639 8.82641 1.60417 8.97919C1.64583 9.17363 1.62847 9.36808 1.55208 9.56252C1.47569 9.75697 1.34028 9.88891 1.14583 9.95835C0.951389 10.0278 0.760417 10.0174 0.572917 9.9271C0.385417 9.83683 0.263889 9.69447 0.208333 9.50002C0.138889 9.26391 0.0868056 9.02085 0.0520833 8.77085C0.0173611 8.52085 0 8.26391 0 8.00002C0 6.31946 0.590278 4.88891 1.77083 3.70835C2.95139 2.5278 4.40278 1.95835 6.125 2.00002L5.45833 1.33335C5.30556 1.18058 5.22917 1.00349 5.22917 0.802104C5.22917 0.600715 5.30556 0.423631 5.45833 0.270854C5.61111 0.118076 5.78819 0.041687 5.98958 0.041687C6.19097 0.041687 6.36806 0.118076 6.52083 0.270854L8.47917 2.22919C8.63194 2.38196 8.70833 2.55558 8.70833 2.75002C8.70833 2.94446 8.63194 3.11808 8.47917 3.27085L6.52083 5.22919C6.36806 5.38196 6.19444 5.45488 6 5.44794C5.80556 5.44099 5.63194 5.36113 5.47917 5.20835C5.32639 5.05558 5.25 4.87849 5.25 4.6771C5.25 4.47572 5.32639 4.29863 5.47917 4.14585L6.125 3.50002C4.81944 3.47224 3.72222 3.9028 2.83333 4.79169C1.94444 5.68058 1.5 6.75002 1.5 8.00002ZM10.5 8.00002C10.5 7.83335 10.4896 7.66669 10.4688 7.50002C10.4479 7.33335 10.4236 7.17363 10.3958 7.02085C10.3542 6.81252 10.3715 6.6146 10.4479 6.4271C10.5243 6.2396 10.6597 6.10419 10.8542 6.02085C11.0486 5.93752 11.2361 5.93752 11.4167 6.02085C11.5972 6.10419 11.7153 6.24308 11.7708 6.43752C11.8403 6.68752 11.8958 6.94099 11.9375 7.19794C11.9792 7.45488 12 7.72224 12 8.00002C12 9.66669 11.4097 11.0938 10.2292 12.2813C9.04861 13.4688 7.59722 14.0417 5.875 14L6.54167 14.6667C6.69444 14.8195 6.77083 14.9965 6.77083 15.1979C6.77083 15.3993 6.69444 15.5764 6.54167 15.7292C6.38889 15.882 6.21181 15.9584 6.01042 15.9584C5.80903 15.9584 5.63194 15.882 5.47917 15.7292L3.52083 13.7709C3.36806 13.6181 3.29167 13.4445 3.29167 13.25C3.29167 13.0556 3.36806 12.882 3.52083 12.7292L5.47917 10.7709C5.63194 10.6181 5.80903 10.5417 6.01042 10.5417C6.21181 10.5417 6.38889 10.6181 6.54167 10.7709C6.69444 10.9236 6.77083 11.1007 6.77083 11.3021C6.77083 11.5035 6.69444 11.6806 6.54167 11.8334L5.875 12.5C7.18056 12.5278 8.27778 12.0972 9.16667 11.2084C10.0556 10.3195 10.5 9.25002 10.5 8.00002Z" fill="#1D1D1D"/>
</svg>
