<svg width="14" height="14" viewBox="0 0 14 14" fill="none" xmlns="http://www.w3.org/2000/svg">
<path d="M1.5 4V12.5H12.5V4H10V8.78292C10 9.07056 9.88118 9.28632 9.64354 9.43021C9.40576 9.57396 9.16181 9.58333 8.91167 9.45833L6.99771 8.50167L5.08354 9.45833C4.8334 9.58333 4.59028 9.57396 4.35417 9.43021C4.11806 9.28632 4 9.07056 4 8.78292V4H1.5ZM1.5 14C1.0875 14 0.734375 13.8531 0.440625 13.5594C0.146875 13.2656 0 12.9125 0 12.5V2.625C0 2.43056 0.0364583 2.24306 0.109375 2.0625C0.182292 1.88194 0.291667 1.71528 0.4375 1.5625L1.5625 0.4375C1.71528 0.284722 1.88153 0.173611 2.06125 0.104167C2.24097 0.0347222 2.42889 0 2.625 0H11.375C11.5711 0 11.759 0.0347222 11.9388 0.104167C12.1185 0.173611 12.2847 0.284722 12.4375 0.4375L13.5625 1.5625C13.7083 1.71528 13.8177 1.88194 13.8906 2.0625C13.9635 2.24306 14 2.43056 14 2.625V12.5C14 12.9125 13.8531 13.2656 13.5594 13.5594C13.2656 13.8531 12.9125 14 12.5 14H1.5ZM1.625 2.5H12.375L11.375 1.5H2.625L1.625 2.5ZM5.5 4V7.5625L7 6.8125L8.5 7.5625V4H5.5Z" fill="#1D1D1D"/>
</svg>
