<svg width="28" height="28" viewBox="0 0 28 28" fill="none" xmlns="http://www.w3.org/2000/svg">
<path d="M12.1337 16.4L9.26699 13.5333C9.02255 13.2888 8.71144 13.1666 8.33366 13.1666C7.95588 13.1666 7.64477 13.2888 7.40033 13.5333C7.15588 13.7777 7.03366 14.0888 7.03366 14.4666C7.03366 14.8444 7.15588 15.1555 7.40033 15.4L11.2003 19.2C11.467 19.4666 11.7781 19.6 12.1337 19.6C12.4892 19.6 12.8003 19.4666 13.067 19.2L20.6003 11.6666C20.8448 11.4222 20.967 11.1111 20.967 10.7333C20.967 10.3555 20.8448 10.0444 20.6003 9.79996C20.3559 9.55551 20.0448 9.43329 19.667 9.43329C19.2892 9.43329 18.9781 9.55551 18.7337 9.79996L12.1337 16.4ZM14.0003 27.3333C12.1559 27.3333 10.4225 26.9833 8.80032 26.2833C7.1781 25.5833 5.76699 24.6333 4.56699 23.4333C3.36699 22.2333 2.41699 20.8222 1.71699 19.2C1.01699 17.5777 0.666992 15.8444 0.666992 14C0.666992 12.1555 1.01699 10.4222 1.71699 8.79996C2.41699 7.17774 3.36699 5.76663 4.56699 4.56663C5.76699 3.36663 7.1781 2.41663 8.80032 1.71663C10.4225 1.01663 12.1559 0.666626 14.0003 0.666626C15.8448 0.666626 17.5781 1.01663 19.2003 1.71663C20.8225 2.41663 22.2337 3.36663 23.4337 4.56663C24.6337 5.76663 25.5837 7.17774 26.2837 8.79996C26.9837 10.4222 27.3337 12.1555 27.3337 14C27.3337 15.8444 26.9837 17.5777 26.2837 19.2C25.5837 20.8222 24.6337 22.2333 23.4337 23.4333C22.2337 24.6333 20.8225 25.5833 19.2003 26.2833C17.5781 26.9833 15.8448 27.3333 14.0003 27.3333Z" fill="white"/>
</svg>
