<svg width="74" height="74" viewBox="0 0 74 74" fill="none" xmlns="http://www.w3.org/2000/svg">
<path d="M31.5913 45.3417L22.608 36.3584C22.058 35.8084 21.3858 35.5334 20.5913 35.5334C19.7969 35.5334 19.0941 35.8389 18.483 36.45C17.933 37 17.658 37.6723 17.658 38.4667C17.658 39.2612 17.933 39.9334 18.483 40.4834L29.6663 51.7584C30.2163 52.3084 30.858 52.5834 31.5913 52.5834C32.3247 52.5834 32.9663 52.3084 33.5163 51.7584L55.4247 29.85C56.0358 29.2389 56.3413 28.5362 56.3413 27.7417C56.3413 26.9473 56.0358 26.2445 55.4247 25.6334C54.8136 25.0834 54.0955 24.8237 53.2705 24.8542C52.4455 24.8848 51.758 25.175 51.208 25.725L31.5913 45.3417ZM36.9997 73.6667C31.9886 73.6667 27.2525 72.7042 22.7913 70.7792C18.3302 68.8542 14.4344 66.2264 11.1038 62.8959C7.77329 59.5653 5.14551 55.6695 3.22051 51.2084C1.29551 46.7473 0.333008 42.0112 0.333008 37C0.333008 31.9278 1.29551 27.1612 3.22051 22.7C5.14551 18.2389 7.77329 14.3584 11.1038 11.0584C14.4344 7.75837 18.3302 5.14587 22.7913 3.22087C27.2525 1.29587 31.9886 0.333374 36.9997 0.333374C42.0719 0.333374 46.8386 1.29587 51.2997 3.22087C55.7608 5.14587 59.6413 7.75837 62.9413 11.0584C66.2413 14.3584 68.8538 18.2389 70.7788 22.7C72.7038 27.1612 73.6663 31.9278 73.6663 37C73.6663 42.0112 72.7038 46.7473 70.7788 51.2084C68.8538 55.6695 66.2413 59.5653 62.9413 62.8959C59.6413 66.2264 55.7608 68.8542 51.2997 70.7792C46.8386 72.7042 42.0719 73.6667 36.9997 73.6667Z" fill="#01B676"/>
</svg>
