<svg width="14" height="14" viewBox="0 0 14 14" fill="none" xmlns="http://www.w3.org/2000/svg">
<path d="M6.99981 8.39993L2.0998 13.2999C1.91647 13.4833 1.68314 13.5749 1.3998 13.5749C1.11647 13.5749 0.883138 13.4833 0.699805 13.2999C0.516471 13.1166 0.424805 12.8833 0.424805 12.5999C0.424805 12.3166 0.516471 12.0833 0.699805 11.8999L5.59981 6.99993L0.699805 2.09993C0.516471 1.91659 0.424805 1.68326 0.424805 1.39993C0.424805 1.11659 0.516471 0.88326 0.699805 0.699927C0.883138 0.516593 1.11647 0.424927 1.3998 0.424927C1.68314 0.424927 1.91647 0.516593 2.0998 0.699927L6.99981 5.59993L11.8998 0.699927C12.0831 0.516593 12.3165 0.424927 12.5998 0.424927C12.8831 0.424927 13.1165 0.516593 13.2998 0.699927C13.4831 0.88326 13.5748 1.11659 13.5748 1.39993C13.5748 1.68326 13.4831 1.91659 13.2998 2.09993L8.39981 6.99993L13.2998 11.8999C13.4831 12.0833 13.5748 12.3166 13.5748 12.5999C13.5748 12.8833 13.4831 13.1166 13.2998 13.2999C13.1165 13.4833 12.8831 13.5749 12.5998 13.5749C12.3165 13.5749 12.0831 13.4833 11.8998 13.2999L6.99981 8.39993Z" fill="#1D1D1D"/>
</svg>
