<svg width="16" height="18" viewBox="0 0 16 18" fill="none" xmlns="http://www.w3.org/2000/svg">
<path d="M3 18C2.45 18 1.97917 17.8042 1.5875 17.4125C1.19583 17.0208 1 16.55 1 16V3C0.716667 3 0.479167 2.90417 0.2875 2.7125C0.0958333 2.52083 0 2.28333 0 2C0 1.71667 0.0958333 1.47917 0.2875 1.2875C0.479167 1.09583 0.716667 1 1 1H5C5 0.716667 5.09583 0.479167 5.2875 0.2875C5.47917 0.0958333 5.71667 0 6 0H10C10.2833 0 10.5208 0.0958333 10.7125 0.2875C10.9042 0.479167 11 0.716667 11 1H15C15.2833 1 15.5208 1.09583 15.7125 1.2875C15.9042 1.47917 16 1.71667 16 2C16 2.28333 15.9042 2.52083 15.7125 2.7125C15.5208 2.90417 15.2833 3 15 3V16C15 16.55 14.8042 17.0208 14.4125 17.4125C14.0208 17.8042 13.55 18 13 18H3ZM13 3H3V16H13V3ZM5 14H7V5H5V14ZM9 14H11V5H9V14Z" fill="white"/>
</svg>
