<svg width="26" height="26" viewBox="0 0 26 26" fill="none" xmlns="http://www.w3.org/2000/svg">
<path d="M2.81493 23.185H4.49306L19.9444 7.75688L18.2663 6.07875L2.81493 21.5069V23.185ZM0.5 25.4999V20.5694L19.9212 1.18292C20.1374 0.974582 20.3862 0.812545 20.6677 0.696804C20.9494 0.581064 21.2446 0.523193 21.5531 0.523193C21.8464 0.523193 22.1358 0.581064 22.4212 0.696804C22.7068 0.812545 22.9615 0.978402 23.1851 1.19437L24.8403 2.86104C25.0718 3.08488 25.2396 3.33951 25.3438 3.62493C25.4479 3.91035 25.5 4.19588 25.5 4.48153C25.5 4.77458 25.4441 5.06579 25.3323 5.35514C25.2203 5.64449 25.0562 5.89727 24.8403 6.11347L5.43056 25.4999H0.5ZM19.0997 6.92354L18.2663 6.07875L19.9444 7.75688L19.0997 6.92354Z" fill="#1D1D1D"/>
</svg>
