<svg width="28" height="28" viewBox="0 0 28 28" fill="none" xmlns="http://www.w3.org/2000/svg">
<path d="M14.0003 20.6666C14.3781 20.6666 14.6948 20.5388 14.9503 20.2833C15.2059 20.0277 15.3337 19.7111 15.3337 19.3333C15.3337 18.9555 15.2059 18.6388 14.9503 18.3833C14.6948 18.1277 14.3781 18 14.0003 18C13.6225 18 13.3059 18.1277 13.0503 18.3833C12.7948 18.6388 12.667 18.9555 12.667 19.3333C12.667 19.7111 12.7948 20.0277 13.0503 20.2833C13.3059 20.5388 13.6225 20.6666 14.0003 20.6666ZM14.0003 15.3333C14.3781 15.3333 14.6948 15.2055 14.9503 14.95C15.2059 14.6944 15.3337 14.3777 15.3337 14V8.66663C15.3337 8.28885 15.2059 7.97218 14.9503 7.71663C14.6948 7.46107 14.3781 7.33329 14.0003 7.33329C13.6225 7.33329 13.3059 7.46107 13.0503 7.71663C12.7948 7.97218 12.667 8.28885 12.667 8.66663V14C12.667 14.3777 12.7948 14.6944 13.0503 14.95C13.3059 15.2055 13.6225 15.3333 14.0003 15.3333ZM14.0003 27.3333C12.1559 27.3333 10.4225 26.9833 8.80032 26.2833C7.1781 25.5833 5.76699 24.6333 4.56699 23.4333C3.36699 22.2333 2.41699 20.8222 1.71699 19.2C1.01699 17.5777 0.666992 15.8444 0.666992 14C0.666992 12.1555 1.01699 10.4222 1.71699 8.79996C2.41699 7.17774 3.36699 5.76663 4.56699 4.56663C5.76699 3.36663 7.1781 2.41663 8.80032 1.71663C10.4225 1.01663 12.1559 0.666626 14.0003 0.666626C15.8448 0.666626 17.5781 1.01663 19.2003 1.71663C20.8225 2.41663 22.2337 3.36663 23.4337 4.56663C24.6337 5.76663 25.5837 7.17774 26.2837 8.79996C26.9837 10.4222 27.3337 12.1555 27.3337 14C27.3337 15.8444 26.9837 17.5777 26.2837 19.2C25.5837 20.8222 24.6337 22.2333 23.4337 23.4333C22.2337 24.6333 20.8225 25.5833 19.2003 26.2833C17.5781 26.9833 15.8448 27.3333 14.0003 27.3333Z" fill="rgb(222,60,63)"/>
</svg>
