<svg width="16" height="20" viewBox="0 0 16 20" fill="none" xmlns="http://www.w3.org/2000/svg">
<path d="M8 17.85C10.0333 15.9833 11.5417 14.2875 12.525 12.7625C13.5083 11.2375 14 9.88333 14 8.7C14 6.88333 13.4208 5.39583 12.2625 4.2375C11.1042 3.07917 9.68333 2.5 8 2.5C6.31667 2.5 4.89583 3.07917 3.7375 4.2375C2.57917 5.39583 2 6.88333 2 8.7C2 9.88333 2.49167 11.2375 3.475 12.7625C4.45833 14.2875 5.96667 15.9833 8 17.85ZM8 19.825C7.76667 19.825 7.53333 19.7833 7.3 19.7C7.06667 19.6167 6.85833 19.4917 6.675 19.325C5.59167 18.325 4.63333 17.35 3.8 16.4C2.96667 15.45 2.27083 14.5292 1.7125 13.6375C1.15417 12.7458 0.729167 11.8875 0.4375 11.0625C0.145833 10.2375 0 9.45 0 8.7C0 6.2 0.804167 4.20833 2.4125 2.725C4.02083 1.24167 5.88333 0.5 8 0.5C10.1167 0.5 11.9792 1.24167 13.5875 2.725C15.1958 4.20833 16 6.2 16 8.7C16 9.45 15.8542 10.2375 15.5625 11.0625C15.2708 11.8875 14.8458 12.7458 14.2875 13.6375C13.7292 14.5292 13.0333 15.45 12.2 16.4C11.3667 17.35 10.4083 18.325 9.325 19.325C9.14167 19.4917 8.93333 19.6167 8.7 19.7C8.46667 19.7833 8.23333 19.825 8 19.825ZM8 10.5C8.55 10.5 9.02083 10.3042 9.4125 9.9125C9.80417 9.52083 10 9.05 10 8.5C10 7.95 9.80417 7.47917 9.4125 7.0875C9.02083 6.69583 8.55 6.5 8 6.5C7.45 6.5 6.97917 6.69583 6.5875 7.0875C6.19583 7.47917 6 7.95 6 8.5C6 9.05 6.19583 9.52083 6.5875 9.9125C6.97917 10.3042 7.45 10.5 8 10.5Z" fill="#1D1D1D"/>
</svg>
