<svg width="16" height="14" viewBox="0 0 16 14" fill="none" xmlns="http://www.w3.org/2000/svg">
<path d="M8.00049 11.5001C9.00049 11.5001 9.83382 11.1598 10.5005 10.4792C11.1672 9.79867 11.5005 8.97228 11.5005 8.00006C11.5005 7.04173 11.1672 6.21881 10.5005 5.53131C9.83382 4.84381 9.00049 4.50006 8.00049 4.50006C7.00049 4.50006 6.16715 4.84381 5.50049 5.53131C4.83382 6.21881 4.50049 7.0452 4.50049 8.01048C4.50049 8.97576 4.83382 9.79867 5.50049 10.4792C6.16715 11.1598 7.00049 11.5001 8.00049 11.5001ZM8.00049 10.0001C7.41715 10.0001 6.93799 9.80471 6.56299 9.41402C6.18799 9.02332 6.00049 8.54506 6.00049 7.97923C6.00049 7.42506 6.18799 6.95666 6.56299 6.57402C6.93799 6.19138 7.41715 6.00006 8.00049 6.00006C8.58382 6.00006 9.06299 6.19138 9.43799 6.57402C9.81299 6.95666 10.0005 7.42506 10.0005 7.97923C10.0005 8.54506 9.81299 9.02332 9.43799 9.41402C9.06299 9.80471 8.58382 10.0001 8.00049 10.0001ZM1.50049 14.0001C1.09771 14.0001 0.747016 13.8508 0.448405 13.5521C0.149794 13.2535 0.000488281 12.9028 0.000488281 12.5001V3.50006C0.000488281 3.09728 0.149794 2.74659 0.448405 2.44798C0.747016 2.14937 1.09771 2.00006 1.50049 2.00006H4.00049L5.50049 6.10352e-05H10.5005L12.0005 2.00006H14.5005C14.913 2.00006 15.2661 2.14937 15.5599 2.44798C15.8536 2.74659 16.0005 3.09728 16.0005 3.50006V12.5001C16.0005 12.9028 15.8536 13.2535 15.5599 13.5521C15.2661 13.8508 14.913 14.0001 14.5005 14.0001H1.50049ZM1.50049 12.5001H14.5005V3.50006H11.2505L9.74841 1.50006H6.25049L4.75049 3.50006H1.50049V12.5001Z" fill="#1C1B1F"/>
</svg>
