<svg width="20" height="21" viewBox="0 0 20 21" fill="none" xmlns="http://www.w3.org/2000/svg">
<path d="M11 10.1V6.5C11 6.21667 10.9042 5.97917 10.7125 5.7875C10.5208 5.59583 10.2833 5.5 10 5.5C9.71667 5.5 9.47917 5.59583 9.2875 5.7875C9.09583 5.97917 9 6.21667 9 6.5V10.475C9 10.6083 9.025 10.7375 9.075 10.8625C9.125 10.9875 9.2 11.1 9.3 11.2L12.6 14.5C12.7833 14.6833 13.0167 14.775 13.3 14.775C13.5833 14.775 13.8167 14.6833 14 14.5C14.1833 14.3167 14.275 14.0833 14.275 13.8C14.275 13.5167 14.1833 13.2833 14 13.1L11 10.1ZM10 20.5C8.61667 20.5 7.31667 20.2375 6.1 19.7125C4.88333 19.1875 3.825 18.475 2.925 17.575C2.025 16.675 1.3125 15.6167 0.7875 14.4C0.2625 13.1833 0 11.8833 0 10.5C0 9.11667 0.2625 7.81667 0.7875 6.6C1.3125 5.38333 2.025 4.325 2.925 3.425C3.825 2.525 4.88333 1.8125 6.1 1.2875C7.31667 0.7625 8.61667 0.5 10 0.5C11.3833 0.5 12.6833 0.7625 13.9 1.2875C15.1167 1.8125 16.175 2.525 17.075 3.425C17.975 4.325 18.6875 5.38333 19.2125 6.6C19.7375 7.81667 20 9.11667 20 10.5C20 11.8833 19.7375 13.1833 19.2125 14.4C18.6875 15.6167 17.975 16.675 17.075 17.575C16.175 18.475 15.1167 19.1875 13.9 19.7125C12.6833 20.2375 11.3833 20.5 10 20.5ZM10 18.5C12.2167 18.5 14.1042 17.7208 15.6625 16.1625C17.2208 14.6042 18 12.7167 18 10.5C18 8.28333 17.2208 6.39583 15.6625 4.8375C14.1042 3.27917 12.2167 2.5 10 2.5C7.78333 2.5 5.89583 3.27917 4.3375 4.8375C2.77917 6.39583 2 8.28333 2 10.5C2 12.7167 2.77917 14.6042 4.3375 16.1625C5.89583 17.7208 7.78333 18.5 10 18.5Z" fill="#1D1D1D"/>
</svg>
